# xmcd
#
# Track frame offsets: 
#        150
#        31379
#        51876
#        78543
#        96566
#        125709
#        159322
#        186365
#        216162
#        236538
#        256712
#        285043
#        293650
#        307827
#
# Disc length: 4408 seconds
#
# Revision: 0
# Processed by: cddbd v1.5.2PL0 Copyright (c) Steve Scherf et al.
# Submitted via: ExactAudioCopy v1.0b1
#
DISCID=bd11360e
DTITLE=Sviatoslav Richter - Sviatoslav Richter archives v. 15 [CD 1 of
DTITLE=2)
DYEAR=1965
DGENRE=Piano
TTITLE0=Sonata, piano, no. 03, E Major   Allegro moderato  D 459   [Fr
TTITLE0=anz Schubert] 
TTITLE1=Sonata, piano, no. 03, E Major   Allegro  D 459   [Franz Schub
TTITLE1=ert] 
TTITLE2=Sonata, piano, no. 03, E Major   Adagio  D 459   [Franz Schube
TTITLE2=rt] 
TTITLE3=Sonata, piano, no. 03, E Major   Scherzo: Allegro  D 459   [Fr
TTITLE3=anz Schubert]  
TTITLE4=Sonata, piano, no. 03, E Major   Allegro patetico  D 459   [Fr
TTITLE4=anz Schubert]
TTITLE5=Sonata, piano, no. 09, B Major   Allegro ma non troppo  Op. 14
TTITLE5=7  D 575   [Franz Schubert]  
TTITLE6=Sonata, piano, no. 09, B Major   Andante  Op. 147  D 575   [Fr
TTITLE6=anz Schubert] 
TTITLE7=Sonata, piano, no. 09, B Major   Scherzo: Allegretto  Op. 147 
TTITLE7=D 575   [Franz Schubert] 
TTITLE8=Sonata, piano, no. 09, B Major   Allegro giusto  Op. 147  D 57
TTITLE8=5   [Franz Schubert] 
TTITLE9=Ballades (4), piano   No. 1 in d minor Andante (After the Scot
TTITLE9=tish Ballad "Edward")  Op. 10   [Johannes Brahms]  
TTITLE10=Ballades (4), piano   No. 2 in D Major  Andante - Allegro non
TTITLE10=troppo  Op. 10   [Johannes Brahms]  
TTITLE11=Pieces (6), piano   Intermezzo, a minor  Allegro non assai, m
TTITLE11=a molto appassionato  Op. 118   [Johannes Brahms] 
TTITLE12=Pieces (6), piano   Ballade, g minor  Allegro energico  Op. 1
TTITLE12=18   [Johannes Brahms] 
TTITLE13=Pieces (6), piano   Intermezzo, e-flat minor  Andante, largo 
TTITLE13=e mesto  Op. 118   [Johannes Brahms] 
EXTD=
EXTT0=
EXTT1=
EXTT2=
EXTT3=
EXTT4=
EXTT5=
EXTT6=
EXTT7=
EXTT8=
EXTT9=
EXTT10=
EXTT11=
EXTT12=
EXTT13=
PLAYORDER=
